<svg version="1.1" viewBox="0.0 0.0 1024.0 1024.0" fill="none" stroke="none" stroke-linecap="square" stroke-miterlimit="10" xmlns:xlink="http://www.w3.org/1999/xlink" xmlns="http://www.w3.org/2000/svg"><clipPath id="p.0"><path d="m0 0l1024.0 0l0 1024.0l-1024.0 0l0 -1024.0z" clip-rule="nonzero"></path></clipPath><g clip-path="url(#p.0)"><path fill="#000000" fill-opacity="0.0" d="m0 0l1024.0 0l0 1024.0l-1024.0 0z" fill-rule="evenodd"></path><path fill="#ff9417" d="m0 -1.735111l1025.7638 0l0 1025.7638l-1025.7638 0z" fill-rule="evenodd"></path><path fill="#ffffff" d="m722.33954 -0.15276903l-616.45374 615.67224l-108.66436 -0.034423828l0.034439087 -108.59549l616.4538 -615.67224z" fill-rule="evenodd"></path><path fill="#ffffff" d="m258.752 1061.1307l662.995 -662.1493l107.32001 1.377594l1.3099365 107.25235l-662.995 662.1492z" fill-rule="evenodd"></path><path fill="#000000" fill-opacity="0.0" d="m341.00977 1012.52625l274.39374 -941.5118" fill-rule="evenodd"></path><path stroke="#ffffff" stroke-width="10.837270341207349" stroke-linejoin="round" stroke-linecap="butt" d="m341.00977 1012.52625l274.39374 -941.5118" fill-rule="evenodd"></path><path fill="#000000" fill-opacity="0.0" d="m374.84088 977.93l274.39374 -941.51184" fill-rule="evenodd"></path><path stroke="#ffffff" stroke-width="10.837270341207349" stroke-linejoin="round" stroke-linecap="butt" d="m374.84088 977.93l274.39374 -941.51184" fill-rule="evenodd"></path><path fill="#000000" fill-opacity="0.0" d="m410.34668 941.51324l274.39368 -941.51184" fill-rule="evenodd"></path><path stroke="#ffffff" stroke-width="10.837270341207349" stroke-linejoin="round" stroke-linecap="butt" d="m410.34668 941.51324l274.39368 -941.51184" fill-rule="evenodd"></path></g></svg>